<?xml version="1.0" standalone="no"?>
<!DOCTYPE svg PUBLIC "-//W3C//DTD SVG 20010904//EN"
 "http://www.w3.org/TR/2001/REC-SVG-20010904/DTD/svg10.dtd">
<svg version="1.0" xmlns="http://www.w3.org/2000/svg"
 width="1772.000000pt" height="1772.000000pt" viewBox="0 0 1772.000000 1772.000000"
 preserveAspectRatio="xMidYMid meet">

<g transform="translate(0.000000,1772.000000) scale(0.100000,-0.100000)"
fill="#000000" stroke="none">
<path d="M635 15481 c-120 -40 -200 -109 -259 -221 -43 -81 -57 -165 -45 -264
19 -151 108 -270 254 -341 76 -37 85 -39 175 -39 88 1 101 3 172 37 99 46 178
119 220 204 17 35 34 66 38 68 4 2 151 5 328 6 l322 1 82 -66 c46 -37 128
-105 183 -151 125 -107 204 -173 326 -272 167 -137 191 -156 282 -236 49 -43
115 -94 146 -115 l56 -37 780 5 780 5 160 122 c88 67 231 177 317 245 86 68
198 155 248 193 50 39 140 108 200 155 59 47 147 113 194 147 47 35 86 69 86
76 0 9 -51 28 -152 55 -191 52 -216 58 -391 82 -136 19 -187 20 -1167 18
l-1025 -3 -2 -399 c-1 -219 -4 -401 -7 -403 -7 -7 -52 22 -100 66 -21 20 -44
41 -50 46 -6 6 -92 78 -191 160 -99 82 -182 152 -185 155 -8 9 -210 182 -285
245 -38 32 -72 61 -75 64 -3 3 -27 24 -55 46 l-49 40 -375 5 -375 5 -36 68
c-46 90 -80 130 -144 173 -106 70 -267 93 -381 55z m182 -206 c56 -17 124 -80
149 -140 38 -92 0 -194 -98 -256 -42 -27 -60 -32 -108 -32 -65 0 -98 16 -148
74 -39 44 -52 78 -52 132 0 66 17 111 61 161 29 32 54 50 87 60 60 18 50 18
109 1z"/>
<path d="M8612 15160 c-4 -3 -7 -1272 -7 -2820 0 -2675 -1 -2819 -18 -2897
-57 -260 -174 -423 -371 -518 -98 -47 -141 -56 -293 -64 l-133 -6 -6 -532 c-4
-438 -3 -533 8 -534 74 -7 420 15 491 30 23 6 76 17 117 26 98 22 236 73 363
134 434 210 745 620 867 1143 81 348 75 84 75 3226 l0 2814 -543 1 c-299 1
-547 0 -550 -3z"/>
<path d="M10050 14610 l0 -549 948 -4 c1021 -4 972 -2 1197 -57 199 -48 450
-165 605 -281 108 -81 241 -208 303 -289 23 -30 54 -71 70 -90 43 -54 48 -62
131 -225 118 -230 216 -551 233 -762 4 -63 9 -83 20 -83 8 0 220 154 470 343
250 188 465 349 479 357 13 8 24 23 24 32 0 16 -39 145 -95 313 -28 85 -40
113 -122 295 -43 95 -177 310 -265 426 -76 100 -257 305 -314 354 -146 128
-190 164 -261 218 -179 136 -298 203 -603 340 -59 26 -186 69 -280 93 -220 58
-291 72 -506 99 -148 19 -219 20 -1096 20 l-938 0 0 -550z"/>
<path d="M6390 14516 c-14 -13 -128 -102 -255 -197 -126 -95 -292 -220 -369
-278 -76 -58 -162 -123 -190 -144 -28 -21 -51 -42 -51 -47 0 -5 27 -31 60 -57
172 -139 313 -382 361 -621 21 -110 15 -475 -10 -562 -37 -128 -81 -228 -138
-317 -122 -189 -327 -330 -571 -392 -139 -36 -264 -42 -727 -39 l-445 3 0 422
c0 276 -3 423 -10 422 -18 0 -128 -79 -644 -462 -224 -167 -254 -189 -382
-281 l-66 -48 -7 -61 c-6 -61 -7 -673 -6 -2459 l0 -928 561 0 560 0 -5 1155
-5 1155 362 0 c199 0 367 -4 372 -8 13 -8 135 -226 283 -502 19 -36 48 -87 64
-114 17 -27 55 -97 85 -155 31 -58 70 -131 88 -161 18 -30 56 -100 85 -155 29
-55 67 -125 85 -155 18 -30 56 -100 85 -155 29 -55 85 -161 125 -235 40 -74
93 -175 120 -225 26 -49 61 -115 78 -145 16 -30 44 -79 60 -109 16 -30 47 -84
67 -120 l38 -66 611 -3 c336 -2 617 1 625 5 11 6 5 23 -31 78 -57 90 -170 281
-215 365 -19 36 -55 101 -80 145 -26 44 -100 175 -166 290 -65 116 -190 334
-277 485 -168 291 -235 411 -235 416 0 2 -17 32 -38 66 -21 35 -62 108 -92
163 -29 55 -64 116 -76 136 -12 20 -41 71 -65 115 -23 43 -64 116 -91 161 -47
76 -53 103 -26 103 22 0 184 83 278 143 251 158 462 372 613 623 48 80 117
216 117 231 0 3 6 19 14 36 61 140 87 227 126 428 74 375 54 870 -50 1217 -30
101 -105 278 -155 371 -32 58 -32 58 -87 141 -77 119 -287 350 -317 350 -9 0
-28 -11 -41 -24z"/>
<path d="M1652 14393 c-12 -2 -38 -19 -57 -37 -32 -31 -35 -38 -35 -90 0 -52
3 -60 41 -100 36 -40 125 -115 281 -237 31 -24 149 -123 263 -219 114 -96 219
-184 234 -195 14 -11 32 -25 38 -32 25 -23 140 -26 915 -20 l786 5 151 112
c83 61 151 116 151 121 0 5 -373 9 -933 9 -865 0 -934 1 -957 17 -30 21 -83
65 -526 440 -268 227 -287 240 -352 226z"/>
<path d="M10054 12988 c-3 -4 -4 -926 -3 -2048 1 -1674 4 -2040 15 -2040 7 0
46 26 86 58 40 32 107 83 148 114 66 49 154 117 380 291 315 244 380 293 416
315 l42 25 6 591 c4 325 6 1066 4 1646 l-3 1054 -543 1 c-299 0 -546 -3 -548
-7z"/>
<path d="M16984 12170 c-65 -13 -162 -67 -214 -119 -26 -26 -65 -81 -86 -121
l-39 -75 -575 -3 -575 -2 0 -126 0 -126 577 3 c317 2 578 2 580 -1 2 -3 19
-36 38 -73 46 -92 95 -146 171 -184 161 -82 285 -82 439 0 260 137 311 508 97
703 -115 106 -270 152 -413 124z m196 -240 c76 -39 130 -122 130 -200 0 -117
-104 -220 -223 -220 -171 0 -273 177 -187 327 33 58 76 91 150 117 24 8 92 -5
130 -24z"/>
<path d="M14405 11484 c-95 -14 -206 -68 -300 -147 -53 -45 -115 -146 -150
-245 -44 -127 -29 -337 30 -402 25 -28 17 -49 -31 -83 -59 -40 -200 -144 -425
-313 -199 -149 -539 -402 -744 -554 -297 -220 -1218 -912 -1370 -1030 -185
-144 -427 -329 -494 -380 -43 -32 -422 -321 -700 -534 -171 -130 -282 -217
-313 -245 l-28 -24 0 -593 0 -593 35 -36 c60 -60 130 -59 190 1 l35 35 0 532
0 533 38 36 c20 20 163 130 317 246 380 285 604 456 855 653 58 45 193 148
300 229 184 137 720 544 785 596 17 13 82 62 145 109 254 187 465 343 530 390
82 60 707 532 829 627 47 36 116 87 153 114 l67 47 108 -54 107 -54 116 1 c91
0 128 5 178 22 179 61 307 190 368 372 15 43 19 83 18 185 0 113 -3 138 -25
195 -61 161 -189 283 -354 340 -57 19 -208 33 -270 24z m220 -282 c64 -31 111
-77 147 -145 32 -59 33 -210 2 -278 -26 -56 -83 -113 -149 -147 -42 -23 -62
-27 -130 -26 -97 0 -137 16 -206 81 -124 116 -143 262 -51 401 62 95 146 141
257 142 56 0 82 -6 130 -28z"/>
<path d="M16075 10446 c-128 -32 -225 -120 -303 -277 l-17 -34 -798 -6 c-761
-6 -800 -7 -822 -25 -13 -11 -88 -71 -167 -135 -163 -132 -559 -430 -1006
-759 -169 -124 -413 -304 -542 -401 -129 -96 -288 -210 -352 -253 -171 -114
-171 -111 2 -103 282 13 594 78 840 174 119 47 354 165 450 226 321 206 619
507 815 827 32 52 69 109 82 126 13 17 23 36 23 42 0 36 28 37 764 32 706 -5
719 -5 730 -25 75 -138 129 -194 242 -247 63 -30 77 -32 164 -32 107 1 164 17
246 69 92 59 139 123 179 243 27 85 18 227 -22 312 -91 196 -300 297 -508 246z
m202 -232 c84 -53 123 -115 123 -199 0 -91 -41 -150 -137 -199 -104 -52 -251
29 -282 157 -25 103 28 206 129 252 43 19 127 14 167 -11z"/>
<path d="M2800 4541 c-84 -27 -123 -68 -141 -147 -24 -105 27 -184 164 -254
96 -50 137 -85 137 -118 0 -84 -105 -102 -261 -43 -29 12 -55 21 -56 21 -2 0
-3 -29 -3 -65 0 -60 2 -65 28 -79 84 -43 235 -44 327 -2 61 27 91 65 106 132
25 109 -26 183 -177 260 -53 27 -102 58 -110 69 -37 53 4 115 76 115 21 0 67
-9 102 -20 34 -11 64 -20 64 -20 4 0 46 111 43 114 -41 32 -239 57 -299 37z"/>
<path d="M6505 4534 c-50 -18 -101 -68 -116 -112 -6 -19 -9 -59 -7 -88 7 -86
42 -126 167 -194 115 -61 147 -93 137 -134 -19 -74 -143 -79 -298 -11 -16 6
-18 0 -18 -63 l0 -70 53 -18 c64 -22 215 -25 270 -5 50 17 106 67 123 108 19
45 17 121 -5 169 -22 48 -53 72 -170 134 -96 51 -126 83 -115 124 7 30 49 56
91 56 28 0 111 -20 145 -35 14 -6 22 3 41 47 13 29 22 56 20 60 -2 4 -33 17
-69 28 -78 24 -190 26 -249 4z"/>
<path d="M8377 4533 c-66 -22 -139 -90 -166 -154 -66 -153 -28 -407 73 -484
81 -62 203 -87 311 -65 82 17 125 41 173 95 61 69 77 126 77 271 0 119 -1 122
-35 190 -41 79 -94 126 -172 149 -67 19 -199 18 -261 -2z m223 -125 c53 -28
78 -71 90 -160 11 -74 -3 -178 -29 -223 -29 -51 -76 -75 -143 -75 -67 0 -104
16 -141 59 -62 75 -61 282 3 363 46 59 143 75 220 36z"/>
<path d="M10245 4538 c-138 -48 -179 -219 -78 -323 19 -20 74 -55 123 -80 127
-64 154 -106 106 -162 -22 -26 -30 -28 -88 -26 -54 1 -110 16 -190 48 -16 6
-18 0 -18 -63 l0 -70 53 -18 c35 -13 82 -19 147 -19 84 0 101 3 153 28 82 41
111 92 105 187 -5 94 -33 128 -163 197 -121 65 -135 77 -135 119 0 70 73 91
191 54 35 -10 64 -18 64 -17 10 18 46 110 43 112 -2 2 -34 12 -72 24 -74 23
-189 27 -241 9z"/>
<path d="M13100 4541 c-90 -28 -155 -85 -197 -176 -26 -55 -28 -69 -28 -180 0
-141 18 -202 77 -270 59 -66 122 -90 243 -89 58 1 117 7 140 15 l40 14 3 63
c2 34 2 62 0 62 -2 0 -25 -7 -53 -15 -77 -24 -177 -21 -219 4 -97 60 -117 302
-33 398 59 67 131 79 229 39 l57 -23 20 50 c12 27 21 55 21 62 0 38 -216 71
-300 46z"/>
<path d="M14037 4533 c-66 -22 -139 -90 -166 -154 -66 -153 -28 -407 73 -484
81 -62 203 -87 311 -65 82 17 125 41 173 95 61 69 77 126 77 271 0 119 -1 122
-35 190 -41 79 -94 126 -172 149 -67 19 -199 18 -261 -2z m223 -125 c53 -28
78 -71 90 -160 11 -74 -3 -178 -29 -223 -29 -51 -76 -75 -143 -75 -67 0 -104
16 -141 59 -62 75 -61 282 3 363 46 59 143 75 220 36z"/>
<path d="M14768 4540 c-89 -27 -138 -93 -138 -185 0 -105 38 -151 188 -228 96
-50 112 -66 112 -116 0 -68 -104 -85 -238 -38 l-72 25 0 -67 c0 -64 2 -69 27
-80 15 -7 62 -17 104 -24 223 -32 368 89 318 265 -14 53 -66 99 -171 154 -49
25 -99 55 -109 65 -45 45 -2 119 70 119 21 0 68 -9 103 -20 34 -11 64 -20 65
-20 4 0 33 71 39 96 5 20 -1 25 -61 43 -70 22 -185 27 -237 11z"/>
<path d="M3240 4284 c0 -166 4 -270 12 -295 16 -57 69 -113 130 -139 63 -28
185 -33 260 -11 58 16 121 69 151 125 21 39 22 55 25 309 l3 267 -75 0 -76 0
0 -246 c0 -207 -3 -251 -16 -280 -22 -46 -60 -64 -133 -64 -52 0 -65 4 -91 28
-42 38 -50 93 -50 348 l0 214 -70 0 -70 0 0 -256z"/>
<path d="M4000 4185 l0 -355 66 0 67 0 -5 283 c-3 155 -2 275 1 267 3 -8 42
-134 86 -280 l82 -265 69 -3 70 -3 89 276 c49 152 91 278 94 280 4 2 5 -122 3
-276 l-3 -279 71 0 70 0 0 355 0 355 -104 0 -105 0 -87 -270 c-48 -149 -91
-267 -95 -263 -3 5 -43 125 -87 268 l-80 260 -101 3 -101 3 0 -356z"/>
<path d="M4940 4185 l0 -355 75 0 75 0 0 355 0 355 -75 0 -75 0 0 -355z"/>
<path d="M5270 4185 l0 -355 65 0 66 0 -3 269 c-2 148 0 267 3 265 4 -2 75
-123 159 -269 l152 -265 94 0 94 0 0 355 0 355 -65 0 -66 0 3 -265 c2 -145 -1
-260 -5 -256 -5 5 -75 123 -155 262 l-147 254 -98 3 -97 3 0 -356z"/>
<path d="M6080 4185 l0 -355 75 0 75 0 0 355 0 355 -75 0 -75 0 0 -355z"/>
<path d="M6900 4480 l0 -60 95 0 95 0 0 -295 0 -295 75 0 75 0 0 295 0 295 95
0 95 0 0 60 0 60 -265 0 -265 0 0 -60z"/>
<path d="M7540 4185 l0 -355 75 0 74 0 3 138 3 137 40 0 39 0 86 -137 85 -138
83 0 82 0 -100 150 c-55 82 -100 153 -99 157 0 5 19 22 41 38 56 41 78 86 78
158 0 71 -17 115 -59 150 -53 44 -117 57 -283 57 l-148 0 0 -355z m315 205
c38 -36 36 -99 -6 -134 -26 -22 -40 -26 -95 -26 l-64 0 0 96 0 96 70 -4 c56
-3 74 -8 95 -28z"/>
<path d="M9180 4534 c0 -4 52 -102 115 -220 l115 -213 0 -135 0 -136 75 0 75
0 0 143 0 142 76 140 c41 77 93 173 115 213 l40 72 -80 0 -81 0 -74 -147 -74
-148 -73 148 -74 147 -77 0 c-43 0 -78 -3 -78 -6z"/>
<path d="M10700 4185 l0 -355 200 0 200 0 0 60 0 59 -127 3 -128 3 0 90 0 90
123 3 122 3 0 59 0 59 -122 3 -123 3 -3 78 -3 77 131 0 130 0 0 60 0 60 -200
0 -200 0 0 -355z"/>
<path d="M11260 4185 l0 -355 70 0 69 0 3 138 3 137 40 0 c44 0 39 6 167 -200
l47 -75 81 0 c62 0 79 3 74 13 -4 6 -49 74 -101 149 -90 133 -104 158 -83 158
16 0 80 62 97 94 22 41 22 141 0 182 -45 87 -123 114 -324 114 l-143 0 0 -355z
m284 221 c44 -18 62 -62 46 -111 -15 -46 -53 -65 -130 -65 l-60 0 0 95 0 95
55 0 c31 0 70 -6 89 -14z"/>
<path d="M11836 4518 c4 -13 57 -171 119 -353 l113 -330 82 0 82 0 113 330
c62 182 115 340 119 353 7 21 6 22 -68 22 l-74 0 -11 -32 c-5 -18 -39 -126
-75 -239 -36 -114 -68 -225 -72 -248 -8 -51 -20 -53 -28 -3 -3 21 -39 145 -81
276 -41 131 -75 240 -75 242 0 2 -34 4 -76 4 -74 0 -75 -1 -68 -22z"/>
<path d="M12570 4185 l0 -355 70 0 70 0 0 355 0 355 -70 0 -70 0 0 -355z"/>
<path d="M13530 4185 l0 -355 75 0 75 0 0 355 0 355 -75 0 -75 0 0 -355z"/>
<path d="M7220 2819 c-74 -4 -276 -7 -448 -7 -206 1 -316 -2 -323 -9 -7 -7
-11 -258 -13 -777 l-2 -766 304 0 304 0 -7 260 c-5 171 -4 260 2 260 6 0 96
-100 201 -222 105 -123 208 -241 230 -262 l41 -39 311 -10 c309 -11 345 -9
345 21 0 6 -63 79 -139 162 -77 83 -188 206 -247 273 l-108 121 72 26 c202 71
310 230 311 455 0 225 -86 363 -289 460 -136 65 -213 73 -545 54z m47 -250
c126 -22 178 -91 189 -250 10 -148 -15 -200 -120 -250 -56 -27 -70 -29 -173
-29 -64 0 -114 4 -118 10 -3 6 -7 123 -8 260 -2 213 0 252 13 260 20 13 139
12 217 -1z"/>
<path d="M9608 2822 l-26 -3 3 -775 c2 -427 5 -778 8 -780 3 -3 254 -6 558 -6
629 -1 684 3 816 68 108 52 208 154 262 265 56 117 77 206 91 394 10 136 9
174 -4 252 -17 107 -59 212 -119 301 -53 79 -189 183 -291 223 -134 52 -213
58 -766 61 -278 2 -517 2 -532 0z m874 -257 c57 -40 100 -107 132 -202 35
-108 46 -187 46 -343 0 -283 -56 -437 -181 -501 -43 -21 -173 -42 -235 -37
l-39 3 -6 105 c-9 145 -10 806 -2 919 l6 93 118 -4 c112 -3 119 -4 161 -33z"/>
<path d="M8689 2403 c-1 -588 -9 -767 -34 -817 -11 -22 -32 -49 -48 -60 -38
-28 -122 -25 -214 8 -39 15 -76 26 -83 26 -10 0 -12 -26 -7 -122 4 -67 11
-126 16 -131 15 -15 203 -54 322 -68 181 -20 318 -2 433 55 87 42 155 111 195
196 l26 55 -4 630 c-1 347 -5 633 -8 638 -2 4 -137 7 -298 7 l-294 0 -2 -417z"/>
</g>
</svg>
